<?xml version="1.0" encoding="UTF-8" standalone="no"?>
<!-- Generator: Adobe Illustrator 19.2.0, SVG Export Plug-In . SVG Version: 6.00 Build 0)  -->

<svg
   xmlns:dc="http://purl.org/dc/elements/1.1/"
   xmlns:cc="http://creativecommons.org/ns#"
   xmlns:rdf="http://www.w3.org/1999/02/22-rdf-syntax-ns#"
   xmlns:svg="http://www.w3.org/2000/svg"
   xmlns="http://www.w3.org/2000/svg"
   xmlns:sodipodi="http://sodipodi.sourceforge.net/DTD/sodipodi-0.dtd"
   xmlns:inkscape="http://www.inkscape.org/namespaces/inkscape"
   version="1.1"
   id="DESIGNS"
   x="0px"
   y="0px"
   width="32px"
   height="32px"
   viewBox="0 0 32 32"
   style="enable-background:new 0 0 32 32;"
   xml:space="preserve"
   sodipodi:docname="Toicon-icon-hatch-hatch.svg"
   inkscape:version="0.92.3 (2405546, 2018-03-11)"><defs
   id="defs3745" /><sodipodi:namedview
   pagecolor="#ffffff"
   bordercolor="#666666"
   borderopacity="1"
   objecttolerance="10"
   gridtolerance="10"
   guidetolerance="10"
   inkscape:pageopacity="0"
   inkscape:pageshadow="2"
   inkscape:window-width="1920"
   inkscape:window-height="1017"
   id="namedview3743"
   showgrid="false"
   inkscape:zoom="16"
   inkscape:cx="10.401424"
   inkscape:cy="6.8783528"
   inkscape:window-x="1912"
   inkscape:window-y="-8"
   inkscape:window-maximized="1"
   inkscape:current-layer="DESIGNS" />
<title
   property="dc:title"
   id="title3730">to hatch</title><desc
   property="dc:description"
   id="desc3732">An icon for &quot;hatch&quot; from the Hatch series on to [icon]. Downloaded from http://www.toicon.com/icons/hatch_hatch by 127.0.0.1 on 2017-07-10. Licensed CC-BY, see http://toicon.com/license/ for details.</desc>
<g
   id="g3738">
	
	<path
   class="hatch_een"
   d="M 16,1 C 9.645,1 5,14.333 5,20 5,26.065 9.935,31 16,31 22.065,31 27,26.065 27,20 27,14.333 22.355,1 16,1 Z m 0,1 c 3.866,0 7.734,8.044 9.399,13.606 C 18.127485,-11.43814 9.0475735,6.3705459 6.601,15.606 8.265,10.044 12.134,2 16,2 Z m 0,28 C 10.477,30 6,25.523 6,20 6,18.798 6.213,17.266 6.601,15.606 1.3191059,37.263314 31.050456,33.181985 25.399,15.606 25.787,17.266 26,18.798 26,20 26,25.523 21.523,30 16,30 Z"
   style="fill:#265aa5"
   id="path3736"
   inkscape:connector-curvature="0"
   sodipodi:nodetypes="ssssssccsssccss" />
</g>
<metadata
   id="metadata3740"><work
     rdf:about=""><format>image/svg+xml</format><type
       rdf:resource="http://purl.org/dc/dcmitype/StillImage" /><license
       rdf:resource="http://creativecommons.org/licenses/by/4.0/" /><attributionname>Carol Liao</attributionname><attributionurl>http://www.toicon.com/icons/hatch_hatch</attributionurl></work><rdf:RDF><cc:Work
       rdf:about=""><dc:format>image/svg+xml</dc:format><dc:type
         rdf:resource="http://purl.org/dc/dcmitype/StillImage" /></cc:Work></rdf:RDF></metadata></svg>